<svg xmlns="http://www.w3.org/2000/svg" data-name="Layer 1" viewBox="0 0 512 512"><path fill="#343c4a" d="M454.95048,511.999a10,10,0,0,0,10-10V376.36569a71.15438,71.15438,0,0,0-50.69321-68.08091L321.04467,280.18A30.49474,30.49474,0,0,1,299.319,251.00243V187.37232H212.681v63.63011A30.49474,30.49474,0,0,1,190.95533,280.18l-93.2126,28.10482a71.15438,71.15438,0,0,0-50.69321,68.08091V501.999a10,10,0,0,0,10,10Z"/><path fill="#fff" d="M324.1543,281.11719c-.76319-.19092-1.844-.48926-3.10962-.937A32.62021,32.62021,0,0,1,305.344,269.17139a30.9358,30.9358,0,0,1-6.0249-18.16895V187.37256H212.68091v63.62988a30.93147,30.93147,0,0,1-6.0249,18.16846c-5.53907,7.36523-13.04956,10.07519-16.06861,11.12012-1.12207.38818-2.07617.6538-2.74609.82568A348.34032,348.34032,0,0,0,256,490.18018a327.19736,327.19736,0,0,0,39.15625-65.27247C321.14429,367.22559,324.77393,314.11133,324.1543,281.11719Z"/><rect width="28" height="186.566" x="242" y="310.446" fill="#ededed"/><path fill="#f9beac" d="M256,296.12744c3.68152.58985,28.68481,4.21,44.36743-12.19531a39.24974,39.24974,0,0,0,7.65125-11.66065,31.55878,31.55878,0,0,1-8.08167-15.17431,30.286,30.286,0,0,1-.618-6.09473V202.33105L284.3136,187.37256H227.6864L212.681,202.33105v48.67139a30.39761,30.39761,0,0,1-8.69971,21.269,41.07452,41.07452,0,0,0,8.01368,11.55616C227.87488,299.8335,251.98584,296.71,256,296.12744Z"/><path fill="#596381" d="M223.76566,511.999l-67.523-128.68554a5.07061,5.07061,0,0,1,1.373-6.3545l15.48462-12.0913a8.00018,8.00018,0,0,0,1.99463-10.32276l-17.904-30.83252a8.00037,8.00037,0,0,1,.9519-9.34668l29.69849-33.249a494.58678,494.58678,0,0,0,70.53174,210.29541L255.179,511.999H223.76566Z"/><path fill="#596381" d="M246.72106,511.999c16.28357-27.98681,36.25062-67.57275,50.91224-111.2959a582.83906,582.83906,0,0,0,26.521-119.58593c8.44229,12.97158,23.25421,31.74648,30.01819,40.18333a7.99459,7.99459,0,0,1,.55258,9.22222L343.11971,349.2104a8,8,0,0,0,.13955,8.65785L355.09013,375.616a8,8,0,0,1,.42758,8.15415L288.26,511.999h-41.539Z"/><path fill="#243047" d="M389.83154 511.999a3.50017 3.50017 0 0 1-3.5-3.5V435.3252a3.5 3.5 0 0 1 7 0V508.499A3.50017 3.50017 0 0 1 389.83154 511.999zM122.16846 511.999a3.50017 3.50017 0 0 1-3.5-3.5V435.3252a3.5 3.5 0 0 1 7 0V508.499A3.50017 3.50017 0 0 1 122.16846 511.999z"/><path fill="#e58a7b" d="M299.937,257.09717a30.286,30.286,0,0,1-.61816-6.09473V202.33105l-15.00537-14.95849h-56.627l-15.00537,14.95849v48.67139a30.27426,30.27426,0,0,1-.45459,5.18164A97.5549,97.5549,0,0,0,227.843,267.44629h0A70.01234,70.01234,0,0,0,263,276.91016h0a70.01394,70.01394,0,0,0,35.15723-9.46387h0c1.5205-.88281,3.00317-1.813,4.46338-2.76953A29.57671,29.57671,0,0,1,299.937,257.09717Z"/><path fill="#f9beac" d="M291.15713,253.44645l-.00006,0a70.01345,70.01345,0,0,1-35.157,9.46372h0a70.01347,70.01347,0,0,1-35.157-9.46371l-.00007,0a97.20641,97.20641,0,0,1-48.45661-84.04328V76.1487H339.61374v93.25447A97.20641,97.20641,0,0,1,291.15713,253.44645Z"/><path fill="#e58a7b" d="M255.97119 222.63086q-.45191 0-.90332-.01172a36.71275 36.71275 0 0 1-13.0542-2.751 3.50024 3.50024 0 0 1 2.65723-6.47656 29.783 29.783 0 0 0 22.65918 0 3.49987 3.49987 0 1 1 2.65527 6.47656A37.20671 37.20671 0 0 1 255.97119 222.63086zM268.48557 169.4355v4.84505A12.48563 12.48563 0 0 1 256 186.76618h0a12.48563 12.48563 0 0 1-12.48562-12.48563V169.4355a3 3 0 0 1 3-3h18.97127A3 3 0 0 1 268.48557 169.4355z"/><path fill="#343c4a" d="M306.43848 136.44238a3.48211 3.48211 0 0 1-1.32666-.26269 30.23044 30.23044 0 0 0-12.08448-2.22949 29.729 29.729 0 0 0-10.57373 2.22949 3.50024 3.50024 0 0 1-2.65722-6.47657 36.7813 36.7813 0 0 1 27.97168 0 3.50065 3.50065 0 0 1-1.32959 6.73926zM293.78271 155.63086a3.50017 3.50017 0 0 1-3.5-3.5v-8.05469a3.5 3.5 0 0 1 7 0v8.05469A3.50017 3.50017 0 0 1 293.78271 155.63086zM205.56152 136.44238a3.50078 3.50078 0 0 1-1.33007-6.73926 36.78 36.78 0 0 1 27.97119 0 3.49987 3.49987 0 1 1-2.65528 6.47657 30.15538 30.15538 0 0 0-12.08545-2.22949 29.72418 29.72418 0 0 0-10.57324 2.22949A3.50141 3.50141 0 0 1 205.56152 136.44238zM218.21729 155.63086a3.50017 3.50017 0 0 1-3.5-3.5v-8.05469a3.5 3.5 0 0 1 7 0v8.05469A3.50017 3.50017 0 0 1 218.21729 155.63086z"/><path fill="#343c4a" d="M314.614,25.97363a98.48287,98.48287,0,0,0,.49695-9.88525h0A12.60892,12.60892,0,0,0,302.4823,3.499H214.6377a42.18557,42.18557,0,0,0-42.25135,42.11963V148.02637h4.19617A10.49048,10.49048,0,0,0,187.073,137.53589V119.752a6,6,0,0,1,6-6h24.06958a97.7245,97.7245,0,0,0,58.4999-19.32227,3.95215,3.95215,0,0,1,4.775.0545,91.45364,91.45364,0,0,0,39.62907,17.75489,5.97826,5.97826,0,0,1,4.8805,5.88991v19.40715a10.49024,10.49024,0,0,0,10.49024,10.49024h4.19653v-83.606A42.11293,42.11293,0,0,0,314.614,25.97363Z"/><path fill="#e58a7b" d="M339.61377,160.43689h0V117.3738h6.01116a18.526,18.526,0,0,1,18.52595,18.5259v.00005A24.53708,24.53708,0,0,1,339.61377,160.43689Z"/><path fill="#e58a7b" d="M147.84915,117.3738h.00009a24.53708,24.53708,0,0,1,24.53708,24.53708v.00006a18.526,18.526,0,0,1-18.526,18.526h-6.01121a0,0,0,0,1,0,0V117.3738A0,0,0,0,1,147.84915,117.3738Z" transform="rotate(180 160.118 138.905)"/><path fill="#f96263" d="M304.62439,313.944a6.91643,6.91643,0,0,1-8.55328,6.70838c-4.33735-1.03849-8.89775-2.30863-13.63263-3.86477a172.48971,172.48971,0,0,1-33.06287-14.88526v.42969a112.6265,112.6265,0,0,1,47.23662-19.54235,6.90228,6.90228,0,0,1,8.01216,6.82141Z"/><path fill="#f96263" d="M207.37561,313.944a6.91643,6.91643,0,0,0,8.55328,6.70838c4.33735-1.03849,8.89775-2.30863,13.63263-3.86477a172.48971,172.48971,0,0,0,33.06287-14.88526v.42969a112.6265,112.6265,0,0,0-47.23662-19.54235,6.90228,6.90228,0,0,0-8.01216,6.82141Z"/><rect width="20.355" height="27.14" x="245.823" y="288.547" fill="#d34342" rx="3.877"/><circle cx="256" cy="329.726" r="3.5" fill="#343c4a"/><circle cx="256" cy="357.726" r="3.5" fill="#343c4a"/><circle cx="256" cy="385.726" r="3.5" fill="#343c4a"/><circle cx="256" cy="413.726" r="3.5" fill="#343c4a"/><circle cx="256" cy="441.726" r="3.5" fill="#343c4a"/></svg>